<svg xmlns="http://www.w3.org/2000/svg" xmlns:xlink="http://www.w3.org/1999/xlink" contentStyleType="text/css" data-diagram-type="SEQUENCE" height="513px" preserveAspectRatio="none" style="width:1249px;height:513px;background:#FFFFFF;" version="1.1" viewBox="0 0 1249 513" width="1249px" zoomAndPan="magnify"><?plantuml 1.2026.4beta2?><defs/><g><g><title>App . Video Player</title><rect fill="#FFFFFF" height="301.1953" style="stroke:#181818;stroke-width:1;" width="10" x="257.4917" y="112.4297"/></g><g><title>Supabase .Local.</title><rect fill="#FFFFFF" height="29.1328" style="stroke:#181818;stroke-width:1;" width="10" x="537.5161" y="141.5625"/></g><g><title>Vision Engine</title><rect fill="#FFFFFF" height="71.2656" style="stroke:#181818;stroke-width:1;" width="10" x="665.0283" y="199.8281"/></g><g><title>Script Matcher</title><rect fill="#FFFFFF" height="113.3984" style="stroke:#181818;stroke-width:1;" width="10" x="902.7646" y="271.0938"/></g><g class="participant-lifeline" data-entity-uid="part1" data-qualified-name="User" data-source-line="12" id="part1-lifeline"><g><title>Sporcu</title><rect fill="#000000" fill-opacity="0.00000" height="350.3281" width="8" x="28.3325" y="81.2969"/><line style="stroke:#268BD2;stroke-width:0.5;stroke-dasharray:5,5;" x1="32" x2="32" y1="81.2969" y2="431.625"/></g></g><g class="participant-lifeline" data-entity-uid="part2" data-qualified-name="App" data-source-line="13" id="part2-lifeline"><g><title>App . Video Player</title><rect fill="#000000" fill-opacity="0.00000" height="350.3281" width="8" x="258.4917" y="81.2969"/><line style="stroke:#268BD2;stroke-width:0.5;stroke-dasharray:5,5;" x1="262.2339" x2="262.2339" y1="81.2969" y2="431.625"/></g></g><g class="participant-lifeline" data-entity-uid="part3" data-qualified-name="Supabase" data-source-line="14" id="part3-lifeline"><g><title>Supabase .Local.</title><rect fill="#000000" fill-opacity="0.00000" height="350.3281" width="8" x="538.5161" y="81.2969"/><line style="stroke:#268BD2;stroke-width:0.5;stroke-dasharray:5,5;" x1="542.2642" x2="542.2642" y1="81.2969" y2="431.625"/></g></g><g class="participant-lifeline" data-entity-uid="part4" data-qualified-name="Vision" data-source-line="15" id="part4-lifeline"><g><title>Vision Engine</title><rect fill="#000000" fill-opacity="0.00000" height="350.3281" width="8" x="666.0283" y="81.2969"/><line style="stroke:#268BD2;stroke-width:0.5;stroke-dasharray:5,5;" x1="669.7681" x2="669.7681" y1="81.2969" y2="431.625"/></g></g><g class="participant-lifeline" data-entity-uid="part5" data-qualified-name="Matcher" data-source-line="16" id="part5-lifeline"><g><title>Script Matcher</title><rect fill="#000000" fill-opacity="0.00000" height="350.3281" width="8" x="903.7646" y="81.2969"/><line style="stroke:#268BD2;stroke-width:0.5;stroke-dasharray:5,5;" x1="907.6934" x2="907.6934" y1="81.2969" y2="431.625"/></g></g><g class="participant-lifeline" data-entity-uid="part6" data-qualified-name="Feedback" data-source-line="17" id="part6-lifeline"><g><title>Coaching Feedback</title><rect fill="#000000" fill-opacity="0.00000" height="350.3281" width="8" x="1158.6567" y="81.2969"/><line style="stroke:#268BD2;stroke-width:0.5;stroke-dasharray:5,5;" x1="1162.1436" x2="1162.1436" y1="81.2969" y2="431.625"/></g></g><g class="participant participant-head" data-entity-uid="part1" data-qualified-name="User" data-source-line="12" id="part1-head"><text fill="#000000" font-family="sans-serif" font-size="14" lengthAdjust="spacing" textLength="48.665" x="5" y="77.9951">Sporcu</text><ellipse cx="32.3325" cy="13.5" fill="#E2E2F0" rx="8" ry="8" style="stroke:#268BD2;stroke-width:0.5;"/><path d="M32.3325,21.5 L32.3325,48.5 M19.3325,29.5 L45.3325,29.5 M32.3325,48.5 L19.3325,63.5 M32.3325,48.5 L45.3325,63.5" fill="none" style="stroke:#268BD2;stroke-width:0.5;"/></g><g class="participant participant-tail" data-entity-uid="part1" data-qualified-name="User" data-source-line="12" id="part1-tail"><text fill="#000000" font-family="sans-serif" font-size="14" lengthAdjust="spacing" textLength="48.665" x="5" y="443.6201">Sporcu</text><ellipse cx="32.3325" cy="455.4219" fill="#E2E2F0" rx="8" ry="8" style="stroke:#268BD2;stroke-width:0.5;"/><path d="M32.3325,463.4219 L32.3325,490.4219 M19.3325,471.4219 L45.3325,471.4219 M32.3325,490.4219 L19.3325,505.4219 M32.3325,490.4219 L45.3325,505.4219" fill="none" style="stroke:#268BD2;stroke-width:0.5;"/></g><g class="participant participant-head" data-entity-uid="part2" data-qualified-name="App" data-source-line="13" id="part2-head"><rect fill="#FDF6E3" height="30.2969" rx="5" ry="5" style="stroke:#268BD2;stroke-width:0.5;" width="142.5156" x="191.2339" y="50"/><text fill="#000000" font-family="sans-serif" font-size="14" lengthAdjust="spacing" textLength="128.5156" x="198.2339" y="69.9951">App / Video Player</text></g><g class="participant participant-tail" data-entity-uid="part2" data-qualified-name="App" data-source-line="13" id="part2-tail"><rect fill="#FDF6E3" height="30.2969" rx="5" ry="5" style="stroke:#268BD2;stroke-width:0.5;" width="142.5156" x="191.2339" y="430.625"/><text fill="#000000" font-family="sans-serif" font-size="14" lengthAdjust="spacing" textLength="128.5156" x="198.2339" y="450.6201">App / Video Player</text></g><g class="participant participant-head" data-entity-uid="part3" data-qualified-name="Supabase" data-source-line="14" id="part3-head"><text fill="#000000" font-family="sans-serif" font-size="14" lengthAdjust="spacing" textLength="120.5039" x="479.2642" y="77.9951">Supabase (Local)</text><path d="M524.5161,29 C524.5161,19 542.5161,19 542.5161,19 C542.5161,19 560.5161,19 560.5161,29 L560.5161,55 C560.5161,65 542.5161,65 542.5161,65 C542.5161,65 524.5161,65 524.5161,55 L524.5161,29" fill="#E2E2F0" style="stroke:#181818;stroke-width:0.5;"/><path d="M524.5161,29 C524.5161,39 542.5161,39 542.5161,39 C542.5161,39 560.5161,39 560.5161,29" fill="none" style="stroke:#181818;stroke-width:0.5;"/></g><g class="participant participant-tail" data-entity-uid="part3" data-qualified-name="Supabase" data-source-line="14" id="part3-tail"><text fill="#000000" font-family="sans-serif" font-size="14" lengthAdjust="spacing" textLength="120.5039" x="479.2642" y="443.6201">Supabase (Local)</text><path d="M524.5161,456.9219 C524.5161,446.9219 542.5161,446.9219 542.5161,446.9219 C542.5161,446.9219 560.5161,446.9219 560.5161,456.9219 L560.5161,482.9219 C560.5161,492.9219 542.5161,492.9219 542.5161,492.9219 C542.5161,492.9219 524.5161,492.9219 524.5161,482.9219 L524.5161,456.9219" fill="#E2E2F0" style="stroke:#181818;stroke-width:0.5;"/><path d="M524.5161,456.9219 C524.5161,466.9219 542.5161,466.9219 542.5161,466.9219 C542.5161,466.9219 560.5161,466.9219 560.5161,456.9219" fill="none" style="stroke:#181818;stroke-width:0.5;"/></g><g class="participant participant-head" data-entity-uid="part4" data-qualified-name="Vision" data-source-line="15" id="part4-head"><rect fill="#FDF6E3" height="30.2969" rx="5" ry="5" style="stroke:#268BD2;stroke-width:0.5;" width="108.5205" x="615.7681" y="50"/><text fill="#000000" font-family="sans-serif" font-size="14" lengthAdjust="spacing" textLength="94.5205" x="622.7681" y="69.9951">Vision Engine</text></g><g class="participant participant-tail" data-entity-uid="part4" data-qualified-name="Vision" data-source-line="15" id="part4-tail"><rect fill="#FDF6E3" height="30.2969" rx="5" ry="5" style="stroke:#268BD2;stroke-width:0.5;" width="108.5205" x="615.7681" y="430.625"/><text fill="#000000" font-family="sans-serif" font-size="14" lengthAdjust="spacing" textLength="94.5205" x="622.7681" y="450.6201">Vision Engine</text></g><g class="participant participant-head" data-entity-uid="part5" data-qualified-name="Matcher" data-source-line="16" id="part5-head"><rect fill="#FDF6E3" height="30.2969" rx="5" ry="5" style="stroke:#268BD2;stroke-width:0.5;" width="116.1426" x="849.6934" y="50"/><text fill="#000000" font-family="sans-serif" font-size="14" lengthAdjust="spacing" textLength="102.1426" x="856.6934" y="69.9951">Script Matcher</text></g><g class="participant participant-tail" data-entity-uid="part5" data-qualified-name="Matcher" data-source-line="16" id="part5-tail"><rect fill="#FDF6E3" height="30.2969" rx="5" ry="5" style="stroke:#268BD2;stroke-width:0.5;" width="116.1426" x="849.6934" y="430.625"/><text fill="#000000" font-family="sans-serif" font-size="14" lengthAdjust="spacing" textLength="102.1426" x="856.6934" y="450.6201">Script Matcher</text></g><g class="participant participant-head" data-entity-uid="part6" data-qualified-name="Feedback" data-source-line="17" id="part6-head"><rect fill="#FDF6E3" height="30.2969" rx="5" ry="5" style="stroke:#268BD2;stroke-width:0.5;" width="151.0264" x="1087.1436" y="50"/><text fill="#000000" font-family="sans-serif" font-size="14" lengthAdjust="spacing" textLength="137.0264" x="1094.1436" y="69.9951">Coaching Feedback</text></g><g class="participant participant-tail" data-entity-uid="part6" data-qualified-name="Feedback" data-source-line="17" id="part6-tail"><rect fill="#FDF6E3" height="30.2969" rx="5" ry="5" style="stroke:#268BD2;stroke-width:0.5;" width="151.0264" x="1087.1436" y="430.625"/><text fill="#000000" font-family="sans-serif" font-size="14" lengthAdjust="spacing" textLength="137.0264" x="1094.1436" y="450.6201">Coaching Feedback</text></g><g><title>App . Video Player</title><rect fill="#FFFFFF" height="301.1953" style="stroke:#181818;stroke-width:1;" width="10" x="257.4917" y="112.4297"/></g><g><title>Supabase .Local.</title><rect fill="#FFFFFF" height="29.1328" style="stroke:#181818;stroke-width:1;" width="10" x="537.5161" y="141.5625"/></g><g><title>Vision Engine</title><rect fill="#FFFFFF" height="71.2656" style="stroke:#181818;stroke-width:1;" width="10" x="665.0283" y="199.8281"/></g><g><title>Script Matcher</title><rect fill="#FFFFFF" height="113.3984" style="stroke:#181818;stroke-width:1;" width="10" x="902.7646" y="271.0938"/></g><g class="message" data-entity-1="part1" data-entity-2="part2" data-source-line="19" id="msg1"><polygon fill="#268BD2" points="245.4917,108.4297,255.4917,112.4297,245.4917,116.4297,249.4917,112.4297" style="stroke:#268BD2;stroke-width:1;"/><line style="stroke:#268BD2;stroke-width:1;" x1="32.3325" x2="251.4917" y1="112.4297" y2="112.4297"/><text fill="#000000" font-family="sans-serif" font-size="13" lengthAdjust="spacing" textLength="206.1592" x="39.3325" y="107.3638">Planl&#305; Program Videosunu Y&#252;kle</text></g><g class="message" data-entity-1="part2" data-entity-2="part3" data-source-line="22" id="msg2"><polygon fill="#268BD2" points="525.5161,137.5625,535.5161,141.5625,525.5161,145.5625,529.5161,141.5625" style="stroke:#268BD2;stroke-width:1;"/><line style="stroke:#268BD2;stroke-width:1;" x1="267.4917" x2="531.5161" y1="141.5625" y2="141.5625"/><text fill="#000000" font-family="sans-serif" font-size="13" lengthAdjust="spacing" textLength="251.0244" x="274.4917" y="136.4966">Daha &#214;nce Olu&#351;turulan Program&#305; Getir</text></g><g class="message" data-entity-1="part3" data-entity-2="part2" data-source-line="24" id="msg3"><polygon fill="#268BD2" points="278.4917,166.6953,268.4917,170.6953,278.4917,174.6953,274.4917,170.6953" style="stroke:#268BD2;stroke-width:1;"/><line style="stroke:#268BD2;stroke-width:1;stroke-dasharray:2,2;" x1="272.4917" x2="541.5161" y1="170.6953" y2="170.6953"/><text fill="#000000" font-family="sans-serif" font-size="13" lengthAdjust="spacing" textLength="147.1323" x="284.4917" y="165.6294">Program Scripti (JSON)</text></g><g class="message" data-entity-1="part2" data-entity-2="part4" data-source-line="27" id="msg4"><polygon fill="#268BD2" points="653.0283,195.8281,663.0283,199.8281,653.0283,203.8281,657.0283,199.8281" style="stroke:#268BD2;stroke-width:1;"/><line style="stroke:#268BD2;stroke-width:1;" x1="267.4917" x2="659.0283" y1="199.8281" y2="199.8281"/><text fill="#000000" font-family="sans-serif" font-size="13" lengthAdjust="spacing" textLength="139.915" x="274.4917" y="194.7622">Video Analizini Ba&#351;lat</text></g><g class="message" data-entity-1="part4" data-entity-2="part4" data-source-line="29" id="msg5"><line style="stroke:#268BD2;stroke-width:1;" x1="675.0283" x2="717.0283" y1="228.9609" y2="228.9609"/><line style="stroke:#268BD2;stroke-width:1;" x1="717.0283" x2="717.0283" y1="228.9609" y2="241.9609"/><line style="stroke:#268BD2;stroke-width:1;" x1="676.0283" x2="717.0283" y1="241.9609" y2="241.9609"/><polygon fill="#268BD2" points="686.0283,237.9609,676.0283,241.9609,686.0283,245.9609,682.0283,241.9609" style="stroke:#268BD2;stroke-width:1;"/><text fill="#000000" font-family="sans-serif" font-size="13" lengthAdjust="spacing" textLength="195.4761" x="682.0283" y="223.895">Hareket Tespiti &amp; Zamanlama</text></g><g class="message" data-entity-1="part4" data-entity-2="part5" data-source-line="30" id="msg6"><polygon fill="#268BD2" points="890.7646,267.0938,900.7646,271.0938,890.7646,275.0938,894.7646,271.0938" style="stroke:#268BD2;stroke-width:1;"/><line style="stroke:#268BD2;stroke-width:1;stroke-dasharray:2,2;" x1="670.0283" x2="896.7646" y1="271.0938" y2="271.0938"/><text fill="#000000" font-family="sans-serif" font-size="13" lengthAdjust="spacing" textLength="208.7363" x="677.0283" y="266.0278">Ger&#231;ekle&#351;en Hareketler (Actual)</text></g><g class="message" data-entity-1="part5" data-entity-2="part5" data-source-line="34" id="msg7"><line style="stroke:#268BD2;stroke-width:1;" x1="912.7646" x2="954.7646" y1="300.2266" y2="300.2266"/><line style="stroke:#268BD2;stroke-width:1;" x1="954.7646" x2="954.7646" y1="300.2266" y2="313.2266"/><line style="stroke:#268BD2;stroke-width:1;" x1="913.7646" x2="954.7646" y1="313.2266" y2="313.2266"/><polygon fill="#268BD2" points="923.7646,309.2266,913.7646,313.2266,923.7646,317.2266,919.7646,313.2266" style="stroke:#268BD2;stroke-width:1;"/><text fill="#000000" font-family="sans-serif" font-size="13" lengthAdjust="spacing" textLength="192.5244" x="919.7646" y="295.1606">Plan vs Ger&#231;eklik K&#305;yaslamas&#305;</text></g><g class="message" data-entity-1="part5" data-entity-2="part5" data-source-line="35" id="msg8"><line style="stroke:#268BD2;stroke-width:1;" x1="912.7646" x2="954.7646" y1="342.3594" y2="342.3594"/><line style="stroke:#268BD2;stroke-width:1;" x1="954.7646" x2="954.7646" y1="342.3594" y2="355.3594"/><line style="stroke:#268BD2;stroke-width:1;" x1="913.7646" x2="954.7646" y1="355.3594" y2="355.3594"/><polygon fill="#268BD2" points="923.7646,351.3594,913.7646,355.3594,923.7646,359.3594,919.7646,355.3594" style="stroke:#268BD2;stroke-width:1;"/><text fill="#000000" font-family="sans-serif" font-size="13" lengthAdjust="spacing" textLength="220.8921" x="919.7646" y="337.2935">"Timing" ve "Benzerlik" Puanlama</text></g><g class="message" data-entity-1="part5" data-entity-2="part6" data-source-line="36" id="msg9"><polygon fill="#268BD2" points="1150.6567,380.4922,1160.6567,384.4922,1150.6567,388.4922,1154.6567,384.4922" style="stroke:#268BD2;stroke-width:1;"/><line style="stroke:#268BD2;stroke-width:1;stroke-dasharray:2,2;" x1="907.7646" x2="1156.6567" y1="384.4922" y2="384.4922"/><text fill="#000000" font-family="sans-serif" font-size="13" lengthAdjust="spacing" textLength="135.1606" x="914.7646" y="379.4263">Kar&#351;&#305;la&#351;t&#305;rmal&#305; Rapor</text></g><g class="message" data-entity-1="part6" data-entity-2="part1" data-source-line="39" id="msg10"><polygon fill="#268BD2" points="43.3325,409.625,33.3325,413.625,43.3325,417.625,39.3325,413.625" style="stroke:#268BD2;stroke-width:1;"/><line style="stroke:#268BD2;stroke-width:1;" x1="37.3325" x2="1161.6567" y1="413.625" y2="413.625"/><text fill="#000000" font-family="sans-serif" font-size="13" lengthAdjust="spacing" textLength="284.5908" x="49.3325" y="408.5591">"Plan&#305;n %85'ine uydun. Spin 2sn ge&#231; kald&#305;!"</text></g><?plantuml-src ZL9DRzD04BtxLmn6G7ee7q5KLGv8JQ4W6cX4IYMuJUn9il9cr-nwKwKLVuDhZZtxpYtE_sBMiHs7ze0F_bY_z-RDcx69K2aQdCCOesHgj5FngPRQmEEpyWfiWx3qqv6A26u3uEl467rTORj7n-EuMnuFn8G6Gb5VcvZC_Vz3D9c8H8eg-n_8lwucyUI8NcyDH9as3sdyQfkUOQolXPh21AMbrfzIDT96aO5NBuC0lHo4erIRo8M05hvPCa6wCmFXIPh22xWICMaOIboIAO5y7CIOuHWjiO9Bjs-TWOvG7fIG-d1VxqfOeHMyLrDEhCHjJ_PHeyY8D8FFc4MpgcBrleyxrHZDVAjdHB6VPmcjFuB0zmE7RxtTdhUlP973qEYfZwDioZhbuFlwJoB9vo4Mc57PNU0xPshTHW_UuGnX_TllmuLqcrNcZ6F9Me-LFr0cp4wcIQ39vx3nKddODYgWysbqyUKWYEa-kJQopQbNpU94eHGtGWdeusObCTkLhGAjacunFwAXX3Au99iABleKVk2SC-5RWsPubNIFsp7hE-9aDYjIDLjoeXrUHCTpRlkjgkvir0Ehdj1MzgE0XMqgY0JEYto9rdknHVuWARmKSvvr20jUkJwf6p9C367egXuQ4hFg7UZ1EPhDgiWbnvGLkPcZtu6lo4lVjb-x3MgYB-tNX-jwjqMkuCdncsUyjU2MiLFFOPGA1LshO4hhEqXGnaN-A6oBykJ-0W00?></g></svg>